<svg viewBox="0 0 10 10" fill="currentColor" xmlns="http://www.w3.org/2000/svg">
  <path d="m3.871 8.473 1.819.255.225-1.604-.064-1.1.016-.107.099.069.727.838 1.278.998 1.13-1.45-1.277-.997-.994-.495-.1-.068.146-.061 1.065-.205 1.503-.607-.688-1.705-1.503.606-.93.606-.115.038.02-.133.363-1.04.226-1.604L4.999.451l-.226 1.605.064 1.1-.023.16-.122-.1-.7-.834-1.278-.997-1.131 1.45 1.278.997.967.49.122.1-.114.038-1.092.2-1.503.607.687 1.706 1.503-.607.93-.606.115-.038-.015.107-.364 1.04-.226 1.604Z">
  </path>
</svg>
