<svg viewBox="0 0 250 250" fill="none" xmlns="http://www.w3.org/2000/svg">
  <path fill-rule="evenodd" clip-rule="evenodd" d="M250 0H0V250H250V0ZM66.0431 69.0847V30.2465H34.3312V115.405H66.34V73.9543L88.3127 115.405H126.379L101.437 71.6383L123.825 30.2465H85.6403L66.0431 69.0847ZM174.355 50.2001H208.977V30.2465H142.346V115.405H208.977V95.4519H174.355V81.8526H204.107V61.899H174.355V50.2001ZM119.312 175.826C119.312 160.9 115.65 150.072 108.326 143.342C101.001 136.612 89.2233 133.247 72.9912 133.247H34.3312V218.405H72.9912C89.2233 218.405 101.001 215.04 108.326 208.31C115.65 201.58 119.312 190.752 119.312 175.826ZM66.1619 153.2H71.269C76.2574 153.2 79.8997 155.001 82.196 158.604C84.4922 162.207 85.6403 167.947 85.6403 175.826C85.6403 183.704 84.4922 189.445 82.196 193.048C79.8997 196.651 76.2574 198.452 71.269 198.452H66.1619V153.2ZM175.187 174.876L175.305 174.757C181.204 174.52 186.292 174.025 190.567 173.272C194.883 172.52 198.406 171.59 201.138 170.481C203.87 169.333 206.047 167.908 207.671 166.206C209.333 164.464 210.462 162.642 211.055 160.742C211.689 158.802 212.006 156.545 212.006 153.972C212.006 146.727 209.294 141.462 203.87 138.176C198.486 134.89 189.815 133.247 177.859 133.247H137.596V218.405H179.403C192.032 218.405 201.217 216.584 206.958 212.942C212.698 209.26 215.569 203.381 215.569 195.304C215.569 192.889 215.232 190.771 214.559 188.95C213.926 187.129 212.718 185.387 210.937 183.724C209.155 182.022 206.78 180.597 203.81 179.449C200.841 178.3 196.961 177.33 192.171 176.539C187.38 175.707 181.719 175.153 175.187 174.876ZM179.997 198.155C178.77 199.343 176.909 199.937 174.415 199.937H169.426V183.368H174.415C177.028 183.368 178.908 184.081 180.056 185.506C181.244 186.931 181.838 189.227 181.838 192.395C181.838 195.008 181.224 196.928 179.997 198.155ZM169.307 151.775H172.752C174.613 151.775 175.978 152.309 176.849 153.378C177.76 154.408 178.215 156.051 178.215 158.307C178.215 161.079 177.76 163.117 176.849 164.424C175.978 165.691 174.613 166.324 172.752 166.324H169.307V151.775Z"/>
</svg>
