<svg xml:space="preserve" style="enable-background:new 0 0 793 555;" viewBox="0 0 793 555" y="0px" x="0px" xmlns:xlink="http://www.w3.org/1999/xlink" xmlns="http://www.w3.org/2000/svg" id="Layer_1" version="1.1">
  <style type="text/css">
  	.st0{fill:#4F26E9;}
  </style>
  <g>
  	<polygon points="0.1,282.3 152.6,194.3 152.6,369.7 0.1,457.7" class="st0"></polygon>
  	<polygon points="312.9,282.4 160.4,194.4 160.4,369.7 312.9,457.7" class="st0"></polygon>
  </g>
  <g>
  	<polygon points="320.7,282.8 473.2,194.8 473.2,370.1 320.7,458.2" class="st0"></polygon>
  	<polygon points="633.4,282.8 481,194.8 481,370.2 633.4,458.2" class="st0"></polygon>
  </g>
  <polygon points="640.9,461 793.3,549 793.3,373.6 640.9,285.6" class="st0"></polygon>
  <g>
  	<polygon points="321,98.1 473.4,10.1 473.4,185.4 321,273.4" class="st0"></polygon>
  	<polygon points="633.7,98.1 481.3,10.1 481.3,185.5 633.7,273.5" class="st0"></polygon>
  </g>
  <polygon points="641.6,98.5 794,10.5 794,185.9 641.6,273.9" class="st0"></polygon>
</svg>
