<svg xml:space="preserve" viewBox="0 0 1202 816" fill="none" xmlns="http://www.w3.org/2000/svg">
<g clip-path="url(#clip0_164_2)">
<path d="M0.151367 412.117L230.921 278.952V544.375L0.151367 677.54V412.117Z" fill="#4F26E9"/>
<path d="M473.493 412.269L242.724 279.104V544.375L473.493 677.54V412.269Z" fill="#4F26E9"/>
<path d="M485.296 412.874L716.066 279.709V544.98L485.296 678.296V412.874Z" fill="#4F26E9"/>
<path d="M958.487 412.874L727.869 279.709V545.131L958.487 678.296V412.874Z" fill="#4F26E9"/>
<path d="M969.836 682.533L1200.45 815.699V550.276L969.836 417.111V682.533Z" fill="#4F26E9"/>
<path d="M485.75 133.378L716.368 0.213135V265.484L485.75 398.649V133.378Z" fill="#4F26E9"/>
<path d="M970.896 133.984L1201.51 0.818359V266.241L970.896 399.406V133.984Z" fill="#4F26E9"/>
<g clip-path="url(#clip1_164_2)">
<path d="M126.6 491.838C133.765 489.366 137.57 481.553 135.098 474.388C132.625 467.223 124.813 463.418 117.647 465.891C110.482 468.363 106.678 476.176 109.15 483.341C111.622 490.506 119.435 494.311 126.6 491.838Z" fill="#F2E8DE"/>
<path d="M131.294 505.446C169.742 492.181 196.804 469.526 191.739 454.846C186.674 440.166 151.399 439.019 112.952 452.285C74.5036 465.551 47.4415 488.205 52.5067 502.885C57.5718 517.566 92.846 518.712 131.294 505.446Z" stroke="#F2E8DE" stroke-width="6.69485"/>
<path d="M103.688 500.099C134.401 526.763 167.551 538.872 177.732 527.145C187.913 515.419 171.269 484.297 140.556 457.633C109.844 430.969 76.6931 418.86 66.5124 430.587C56.3316 442.313 72.9758 473.435 103.688 500.099Z" stroke="#F2E8DE" stroke-width="6.69485"/>
<path d="M94.5169 473.518C86.7814 513.448 92.8699 548.211 108.116 551.165C123.362 554.118 141.992 524.143 149.727 484.214C157.463 444.284 151.374 409.52 136.128 406.566C120.882 403.613 102.252 433.588 94.5169 473.518Z" stroke="#F2E8DE" stroke-width="6.69485"/>
</g>
<path d="M650.797 519.739C654.627 523.202 658.906 525.316 664.858 523.564C669.859 522.092 672.318 518.653 671.301 515.2C670.083 511.062 666.37 510.562 660.158 509.774L656.76 509.368C646.959 508.221 639.806 505.275 636.915 495.45C634.251 486.399 639.12 477.479 649.897 474.308C657.57 472.049 663.872 473.096 669.905 478.919L662.283 487.718C659.122 484.617 656.46 483.812 652.995 484.832C649.46 485.873 647.879 488.774 648.741 491.704C649.807 495.324 652.481 496.13 658.318 496.848L661.716 497.253C673.263 498.632 680.372 501.411 683.338 511.489C686.536 522.354 679.752 530.819 668.29 534.192C657.082 537.491 648.269 534.281 642.666 528.323L650.797 519.739ZM608.474 533.331C611.359 536.137 613.921 538.473 618.067 537.253C622.032 536.086 624.077 533.798 622.301 527.767L610.225 486.732L622.293 483.18L634.417 524.378C638.095 536.874 632.442 544.718 621.748 547.865C612.086 550.708 605.018 547.355 600.4 542.17L608.474 533.331Z" fill="#F2E8DE"/>
<path d="M346.127 548.662C344.377 548.409 342.706 547.698 341.3 546.593L326.689 534.818C324.496 533.137 325.729 532.834 326.555 532.676C329.899 532.022 330.582 531.864 334.258 530.427C334.644 530.275 335.101 530.414 335.436 530.683L346.658 539.746C347.067 540.05 347.696 540.141 348.141 539.961L400.013 519.26C400.492 519.073 400.854 518.599 400.931 518.072L408.929 462.832C409.009 462.281 408.792 461.748 408.379 461.407L364.526 426.871C364.12 426.543 363.533 426.458 363.052 426.658L311.213 447.338C310.711 447.535 310.342 448.007 310.265 448.535L302.267 503.774C302.191 504.301 302.406 504.846 302.824 505.164L314.837 514.635C321.439 519.224 326.396 515.66 327.007 511.442L334.901 456.922C335.014 456.143 335.712 455.632 336.49 455.745L342.554 456.623C343.308 456.732 343.845 457.421 343.732 458.2L335.834 512.745C334.46 522.235 328.495 526.938 319.496 525.635C316.728 525.234 314.547 524.918 308.893 521.041L297.384 511.985C294.54 509.739 293.109 506.106 293.628 502.523L301.626 447.284C302.146 443.689 304.549 440.611 307.91 439.287L359.83 418.582C363.11 417.307 367.136 417.89 369.896 420.039L413.75 454.624C416.583 456.857 418.028 460.48 417.507 464.074L409.509 519.314C408.99 522.897 406.577 525.961 403.225 527.31L351.365 548.025C349.702 548.689 347.899 548.893 346.126 548.636" fill="#F2E8DE"/>
<path d="M366.424 512.739C345.479 509.706 342.48 499.456 343.647 491.392C343.758 490.625 344.465 490.103 345.233 490.214L351.416 491.11C352.099 491.208 352.602 491.789 352.612 492.479C352.635 498.915 354.955 502.495 367.62 504.329C377.709 505.79 382.329 504.132 383.104 498.782C383.55 495.702 382.659 493.237 367.208 489.434C354.286 486.241 346.604 482.181 348.122 471.696C349.521 462.038 358.502 457.466 372.15 459.442C387.475 461.661 394.302 468.082 393.605 479.652C393.584 480.052 393.385 480.415 393.08 480.664C392.776 480.902 392.38 481.016 391.997 480.96L385.778 480.06C385.131 479.966 384.634 479.429 384.592 478.787C384.054 471.944 380.742 469.299 370.904 467.875C359.892 466.28 358.055 469.929 357.639 472.805C357.134 476.292 358.496 477.529 373.07 481.645C387.502 485.729 394.088 489.496 392.591 499.837C391.082 510.262 381.517 514.982 366.347 512.785M433.136 462.645L434.742 462.878C436.06 463.068 436.445 462.182 436.523 461.643C436.728 460.229 435.757 460.089 435.218 460.011L433.564 459.771L433.136 462.645ZM431.839 457.833L435.398 458.348C436.62 458.525 439.016 458.872 438.621 461.604C438.345 463.509 437.065 463.728 436.3 463.862C437.712 464.164 437.672 465.113 437.673 466.458C437.649 467.299 437.599 468.748 437.817 469.269L435.624 468.951C435.633 468.463 435.68 465.778 435.7 465.634C435.642 465.027 435.48 464.709 434.749 464.604L432.939 464.342L432.339 468.488L430.338 468.198L431.839 457.833ZM426.815 462.366C426.194 466.656 429.154 470.632 433.407 471.248C437.697 471.869 441.674 468.824 442.284 464.606C442.907 460.304 439.891 456.381 435.637 455.765C431.443 455.158 427.433 458.015 426.805 462.352M443.767 464.845C443.031 469.926 438.273 473.47 433.204 472.736C428.172 472.007 424.571 467.302 425.314 462.173C426.07 456.949 430.939 453.568 435.876 454.283C440.849 455.003 444.509 459.631 443.755 464.843" fill="#F2E8DE"/>
<g clip-path="url(#clip2_164_2)">
<path d="M894.014 524.296C895.192 522.874 896.058 521.195 896.329 519.6L905.725 464.251C905.996 462.656 905.733 460.785 905.09 459.055L843.052 482.084L894.014 524.296Z" fill="#F2E8DE"/>
<path d="M837.2 546.981L889.832 527.444C891.348 526.881 892.837 525.718 894.014 524.296L843.051 482.084L781.013 505.113C781.655 506.843 782.677 508.434 783.922 509.465L827.158 545.277C829.649 547.34 834.168 548.107 837.2 546.981Z" fill="#F2E8DE"/>
<path d="M905.09 459.054C904.448 457.324 903.426 455.734 902.181 454.702L858.945 418.89C856.454 416.827 851.935 416.06 848.903 417.186L796.271 436.723C793.239 437.848 790.315 441.378 789.774 444.567L780.378 499.916C780.107 501.511 780.371 503.382 781.013 505.113L843.051 482.084L905.09 459.054Z" fill="#F2E8DE"/>
<path d="M836.49 520.734C815.178 517.116 800.783 496.834 804.401 475.522C808.019 454.21 828.301 439.815 849.613 443.433C863.365 445.768 874.934 455.346 879.805 468.428L861.435 475.268C858.997 468.72 853.21 463.926 846.332 462.758C835.676 460.949 825.535 468.147 823.726 478.803C821.917 489.459 829.115 499.6 839.771 501.409C846.649 502.577 853.694 499.961 858.157 494.583L873.241 507.102C864.325 517.845 850.243 523.069 836.49 520.734Z" fill="#4F26E9"/>
<path d="M882.067 486.498L877.772 485.769L878.501 481.474L874.207 480.745L873.478 485.04L869.183 484.311L868.454 488.605L872.749 489.334L872.02 493.629L876.314 494.358L877.043 490.063L881.338 490.792L882.067 486.498Z" fill="#4F26E9"/>
<path d="M898.171 489.232L893.876 488.503L894.605 484.208L890.311 483.479L889.582 487.774L885.288 487.044L884.559 491.339L888.853 492.068L888.124 496.363L892.418 497.092L893.147 492.797L897.442 493.526L898.171 489.232Z" fill="#4F26E9"/>
</g>
<g clip-path="url(#clip3_164_2)">
<path d="M556.722 130.8L563.452 129.956L564.288 136.628L570.492 135.851L569.656 129.179L576.387 128.336L578.917 148.527L572.186 149.371L571.343 142.64L565.198 143.41L566.041 150.141L559.252 150.992M586.126 133.951L580.186 134.696L579.342 127.965L597.983 125.629L598.826 132.36L592.857 133.108L594.543 146.569L587.813 147.413M600.939 125.259L607.991 124.375L613.213 130.944L616.653 123.29L623.705 122.406L626.236 142.598L619.505 143.441L618.251 133.433L614.449 141.281L608.828 134.614L610.082 144.622L603.469 145.451M627.041 121.988L633.772 121.145L635.466 134.665L645.006 133.469L645.842 140.141L629.572 142.18" fill="#F2E8DE"/>
<path d="M573.759 268.659L550.52 161.478L656.687 148.175L660.605 257.717L618.601 275.227" fill="#F2E8DE"/>
<path d="M617.534 265.998L604.718 163.722L648.115 158.284L651.421 251.794" fill="#F2E8DE"/>
<path d="M573.019 181.159L606.379 176.979L608.044 190.264L589.256 192.618L592.191 206.072L609.749 203.872L611.41 217.128L581.678 220.854M583.1 227.452L596.444 225.78L598.711 236.285L614.076 238.402L615.814 252.273L587.587 248.082" fill="#4F26E9"/>
<path d="M639.622 172.813L606.32 176.986L607.985 190.272L640.058 186.253M640.563 200.011L609.69 203.879L611.355 217.165L627.742 215.111L628.355 232.571L614.017 238.41L615.748 252.222L642.017 241.262" fill="#4F26E9"/>
</g>
<g clip-path="url(#clip4_164_2)">
<path d="M1138.91 151.196L1136.47 266.954L1091.17 282.895L1044.26 273.247L1026.17 158.868L1138.91 151.196Z" fill="#F2E8DE"/>
<path d="M1127.18 260.226L1129.26 161.305L1083.18 164.441L1090.58 273.107L1127.18 260.226Z" fill="#F2E8DE"/>
<path d="M1053.24 209.357L1055.46 223.385L1087.05 221.235L1086.08 207.122L1053.24 209.357Z" fill="#4F26E9"/>
<path d="M1084.14 178.555L1084.09 178.558L1048.75 180.963L1050.99 194.99L1085.1 192.669L1084.14 178.555Z" fill="#4F26E9"/>
<path d="M1089.58 258.461L1088.58 243.777L1088.52 243.797L1072.51 240.623L1070.74 229.435L1063.1 229.954L1056.57 230.399L1060.06 252.425L1089.52 258.483L1089.58 258.461Z" fill="#4F26E9"/>
<path d="M1050.57 125.789L1067.67 124.626L1068.16 131.774L1058.21 132.451L1058.7 139.6L1068.64 138.923L1069.13 146.071L1052.03 147.235L1050.57 125.789Z" fill="#F2E8DE"/>
<path d="M1071.09 124.393L1088.18 123.23L1088.61 129.446L1078.66 130.123L1078.74 131.366L1088.69 130.689L1089.66 144.986L1072.57 146.15L1072.12 139.623L1082.07 138.946L1081.99 137.703L1072.04 138.379L1071.09 124.393Z" fill="#F2E8DE"/>
<path d="M1091.6 122.997L1108.7 121.834L1109.12 128.05L1099.17 128.727L1099.26 129.97L1109.2 129.293L1110.18 143.59L1093.08 144.754L1092.64 138.227L1102.58 137.55L1102.5 136.307L1092.55 136.984L1091.6 122.997Z" fill="#F2E8DE"/>
<path d="M1104.38 220.056L1103.98 238.472L1088.53 243.792L1089.53 258.475L1117.92 248.487L1117.97 246.088L1118.76 208.706L1118.84 204.892L1119.45 176.152L1084.09 178.558L1085.05 192.672L1104.94 191.319L1104.64 205.859L1086.04 207.125L1087 221.239L1104.38 220.056Z" fill="#4F26E9"/>
</g>
<path d="M1104.12 619.81L1118.11 624.003ZM1087.47 614.819L1101.46 619.012ZM1071.15 609.927L1085.14 614.12ZM1054.84 605.036L1068.49 609.129ZM1038.19 600.045L1052.17 604.237ZM1059.43 589.717L1073.08 593.81ZM1075.75 594.609L1089.73 598.801ZM1092.06 599.5L1106.05 603.693ZM1096.66 584.182L1110.64 588.374Z" fill="#4F26E9"/>
<path d="M1104.12 619.81L1118.11 624.003M1087.47 614.819L1101.46 619.012M1071.15 609.927L1085.14 614.12M1054.84 605.036L1068.49 609.129M1038.19 600.045L1052.17 604.237M1059.43 589.717L1073.08 593.81M1075.75 594.609L1089.73 598.801M1092.06 599.5L1106.05 603.693M1096.66 584.182L1110.64 588.374" stroke="#F2E8DE" stroke-width="13.2109"/>
<path d="M1162.53 638.046C1162.53 638.046 1158.24 630.588 1145.32 628.892C1146.88 618.836 1138.25 610.08 1138.25 610.08C1138.25 610.08 1125.1 618.84 1128.2 633.924C1125.9 634.324 1122.17 634.658 1117.18 633.161L1025.6 605.708C1022.04 611.536 1009.46 653.496 1055.42 667.272C1088.38 677.155 1117.62 669.224 1137.66 644.744C1154.58 651.268 1162.53 638.046 1162.53 638.046Z" fill="#F2E8DE"/>
</g>
<defs>
<clipPath id="clip0_164_2">
<rect width="1202" height="816" fill="white"/>
</clipPath>
<clipPath id="clip1_164_2">
<rect width="153.982" height="137" fill="white" transform="translate(27 439.223) rotate(-19.0361)"/>
</clipPath>
<clipPath id="clip2_164_2">
<rect width="117.61" height="132.35" fill="white" transform="translate(796.151 407) rotate(9.63484)"/>
</clipPath>
<clipPath id="clip3_164_2">
<rect width="151" height="151" fill="white" transform="translate(525 134.775) rotate(-7.14234)"/>
</clipPath>
<clipPath id="clip4_164_2">
<rect width="113" height="159.5" fill="white" transform="translate(1024.04 127.595) rotate(-3.89303)"/>
</clipPath>
</defs>
</svg>
