<?xml version="1.0" standalone="no"?>
<!DOCTYPE svg PUBLIC "-//W3C//DTD SVG 20010904//EN"
 "http://www.w3.org/TR/2001/REC-SVG-20010904/DTD/svg10.dtd">
<svg version="1.0" xmlns="http://www.w3.org/2000/svg"
 width="700.000000pt" height="700.000000pt" viewBox="0 0 700.000000 700.000000"
 preserveAspectRatio="xMidYMid meet">
<metadata>
Created by potrace 1.14, written by Peter Selinger 2001-2017
</metadata>
<g transform="translate(0.000000,700.000000) scale(0.100000,-0.100000)"
fill="#000000" stroke="none">
<path d="M0 3500 l0 -3500 3500 0 3500 0 0 3500 0 3500 -3500 0 -3500 0 0
-3500z m1852 2131 l3 -539 270 536 271 537 532 2 c540 2 554 1 523 -32 -4 -6
-30 -50 -56 -100 -27 -49 -87 -162 -135 -250 -48 -88 -105 -194 -127 -235 -22
-41 -96 -176 -163 -300 -68 -124 -123 -232 -122 -240 0 -8 31 -69 69 -135 38
-66 72 -127 76 -135 4 -8 11 -22 17 -30 18 -28 100 -171 100 -175 0 -3 18 -34
40 -70 22 -36 40 -68 40 -70 0 -3 11 -22 23 -43 13 -20 35 -57 49 -82 14 -25
80 -141 146 -258 67 -118 122 -217 122 -221 0 -4 -238 -7 -529 -7 l-529 1 -23
45 c-13 24 -65 121 -115 215 -50 93 -119 224 -154 290 -34 66 -81 154 -103
195 -85 161 -142 268 -179 339 -32 64 -38 70 -39 45 0 -16 -1 -276 -2 -579
l-2 -550 -445 0 -445 0 -2 1192 -2 1192 445 0 444 1 2 -539z m3998 259 l0
-280 -483 0 -484 0 -1 -164 -1 -163 408 0 c225 0 412 -3 417 -6 5 -3 9 -126 9
-279 l0 -273 -416 0 -417 0 2 -190 1 -190 475 -2 c261 -1 478 -2 483 -2 4 -1
7 -126 7 -279 l0 -277 -927 -1 c-511 0 -930 3 -933 7 -4 6 -5 2368 -1 2376 0
2 420 3 931 3 l930 -1 0 -279z m-3550 -2665 c30 -4 66 -9 80 -10 23 -2 86 -12
133 -21 97 -18 293 -85 339 -116 14 -10 29 -18 33 -18 13 0 101 -65 149 -110
67 -62 127 -142 169 -226 40 -77 90 -224 102 -294 4 -25 9 -54 11 -65 20 -100
26 -448 11 -575 -12 -99 -44 -237 -74 -315 -131 -345 -379 -523 -838 -600 -97
-16 -265 -20 -825 -20 l-625 0 -2 1180 c-1 649 -1 1185 1 1190 4 13 1249 13
1336 0z m2940 1 c474 -48 683 -214 694 -550 9 -262 -111 -423 -379 -509 -88
-28 -261 -62 -370 -73 -38 -4 -83 -8 -100 -10 -16 -1 -56 -4 -88 -5 -76 -3
-65 -10 25 -15 40 -2 91 -6 113 -9 22 -2 65 -7 95 -10 184 -19 402 -70 514
-119 199 -88 298 -240 290 -447 -11 -305 -148 -477 -450 -563 -49 -14 -123
-30 -164 -36 -41 -6 -88 -14 -105 -17 -16 -3 -352 -8 -746 -10 l-717 -5 0
1189 c0 685 4 1190 9 1193 12 8 1300 4 1379 -4z"/>
<path d="M1856 2672 c-2 -4 -4 -290 -4 -635 l0 -628 111 2 c158 4 230 28 298
101 66 71 110 190 127 342 8 79 8 314 -1 392 -16 138 -70 277 -130 335 -35 33
-105 72 -152 84 -40 10 -243 16 -249 7z"/>
<path d="M4740 2515 l0 -205 66 0 c135 0 178 51 179 210 0 153 -31 190 -165
196 l-80 4 0 -205z"/>
<path d="M4795 1832 l-51 -3 0 -229 1 -230 95 0 c52 0 111 5 131 10 77 22 115
84 118 196 3 112 -26 190 -84 228 -29 19 -132 33 -210 28z"/>
</g>
</svg>
